<?xml version="1.0" encoding="utf-8"?>
<!-- Generator: Adobe Illustrator 16.0.3, SVG Export Plug-In . SVG Version: 6.00 Build 0)  -->
<!DOCTYPE svg PUBLIC "-//W3C//DTD SVG 1.1//EN" "http://www.w3.org/Graphics/SVG/1.1/DTD/svg11.dtd">
<svg version="1.1" id="Warstwa_1" xmlns="http://www.w3.org/2000/svg" xmlns:xlink="http://www.w3.org/1999/xlink" x="0px" y="0px"
	 width="264px" height="264px" viewBox="0 0 264 264" enable-background="new 0 0 264 264" xml:space="preserve">
<path fill="#B4CCD9" d="M132.5,0C59.321,0,0,59.321,0,132.5S59.321,265,132.5,265S265,205.679,265,132.5S205.679,0,132.5,0z
	 M132.5,254.919c-67.611,0-122.418-54.808-122.418-122.419c0-67.61,54.807-122.418,122.418-122.418S254.919,64.89,254.919,132.5
	C254.919,200.111,200.111,254.919,132.5,254.919z"/>
<path fill="#2EAF2C" d="M105.359,191.006c-4.131,0-8.26-1.584-11.405-4.723l-28.445-28.45c-6.297-6.301-6.297-16.512,0-22.813
	c6.301-6.29,16.508-6.29,22.808,0l17.43,17.438l73.952-69.028c6.515-6.073,16.72-5.716,22.793,0.783
	c6.081,6.514,5.728,16.721-0.785,22.799l-85.341,79.654C113.26,189.561,109.309,191.006,105.359,191.006z"/>
</svg>
